# xmcd
#
# Track frame offsets: 
#        150
#        15369
#        31338
#        60014
#
# Disc length: 1067 seconds
#
# Revision: 0
# Processed by: cddbd v1.5.2PL0 Copyright (c) Steve Scherf et al.
# Submitted via: ExactAudioCopy v0.95b4
#
DISCID=1c042904
DTITLE=Nina Provencal - Highest High
DYEAR=2007
DGENRE=Vocal
TTITLE0=Highest High (Radio Edit)
TTITLE1=Highest High (Funky Box Edit)
TTITLE2=Highest High (Deep Dub Mix)
TTITLE3=Highest High (Original Mix)
EXTD=
EXTT0=
EXTT1=
EXTT2=
EXTT3=
PLAYORDER=
